<?xml version="1.0" encoding="UTF-8"?>
<svg id="Calque_2" data-name="Calque 2" xmlns="http://www.w3.org/2000/svg" xmlns:xlink="http://www.w3.org/1999/xlink" viewBox="0 0 650 650">
  <defs>
    <style>
      .cls-1 {
        fill: url(#Dégradé_sans_nom_125-7);
      }

      .cls-1, .cls-2, .cls-3, .cls-4, .cls-5, .cls-6, .cls-7, .cls-8, .cls-9, .cls-10, .cls-11, .cls-12, .cls-13, .cls-14, .cls-15, .cls-16, .cls-17, .cls-18 {
        stroke: #1d1d1b;
        stroke-miterlimit: 10;
      }

      .cls-1, .cls-2, .cls-3, .cls-4, .cls-5, .cls-6, .cls-7, .cls-8, .cls-9, .cls-10, .cls-11, .cls-12, .cls-13, .cls-14, .cls-15, .cls-17, .cls-18 {
        stroke-width: 5px;
      }

      .cls-2 {
        fill: url(#Dégradé_sans_nom_125-15);
      }

      .cls-3 {
        fill: url(#Dégradé_sans_nom_125-4);
      }

      .cls-19 {
        fill: url(#Dégradé_sans_nom_125-20);
      }

      .cls-4 {
        fill: url(#Dégradé_sans_nom_125-6);
      }

      .cls-20 {
        fill: url(#Dégradé_sans_nom_125-22);
      }

      .cls-5 {
        fill: url(#Dégradé_sans_nom_125-13);
      }

      .cls-6 {
        fill: url(#Dégradé_sans_nom_125-12);
      }

      .cls-7 {
        fill: url(#Dégradé_sans_nom_125-8);
      }

      .cls-21 {
        fill: url(#Dégradé_sans_nom_125);
      }

      .cls-8 {
        fill: url(#Dégradé_sans_nom_125-3);
      }

      .cls-9 {
        fill: url(#Dégradé_sans_nom_125-16);
      }

      .cls-10 {
        fill: url(#Dégradé_sans_nom_125-9);
      }

      .cls-11 {
        fill: url(#Dégradé_sans_nom_125-2);
      }

      .cls-12 {
        fill: url(#Dégradé_sans_nom_125-10);
      }

      .cls-13 {
        fill: url(#Dégradé_sans_nom_125-18);
      }

      .cls-14 {
        fill: url(#Dégradé_sans_nom_125-5);
      }

      .cls-22 {
        fill: #1d1d1b;
      }

      .cls-15 {
        fill: url(#Dégradé_sans_nom_125-14);
      }

      .cls-16 {
        fill: url(#Dégradé_sans_nom_125-19);
        stroke-width: 10px;
      }

      .cls-23 {
        fill: url(#Dégradé_sans_nom_125-21);
      }

      .cls-17 {
        fill: url(#Dégradé_sans_nom_125-17);
      }

      .cls-18 {
        fill: url(#Dégradé_sans_nom_125-11);
      }
    </style>
    <linearGradient id="Dégradé_sans_nom_125" data-name="Dégradé sans nom 125" x1="12.5" y1="325" x2="637.5" y2="325" gradientUnits="userSpaceOnUse">
      <stop offset="0" stop-color="#00fe77"/>
      <stop offset="1" stop-color="#6ae4ff"/>
    </linearGradient>
    <linearGradient id="Dégradé_sans_nom_125-2" data-name="Dégradé sans nom 125" x1="121.13" x2="528.87" xlink:href="#Dégradé_sans_nom_125"/>
    <linearGradient id="Dégradé_sans_nom_125-3" data-name="Dégradé sans nom 125" x1="55.47" y1="373.74" x2="123.96" y2="373.74" xlink:href="#Dégradé_sans_nom_125"/>
    <linearGradient id="Dégradé_sans_nom_125-4" data-name="Dégradé sans nom 125" x1="55.63" y1="272.79" x2="125.08" y2="272.79" xlink:href="#Dégradé_sans_nom_125"/>
    <linearGradient id="Dégradé_sans_nom_125-5" data-name="Dégradé sans nom 125" x1="80.93" y1="187.58" x2="169.52" y2="187.58" xlink:href="#Dégradé_sans_nom_125"/>
    <linearGradient id="Dégradé_sans_nom_125-6" data-name="Dégradé sans nom 125" x1="143.46" y1="123.3" x2="237.56" y2="123.3" xlink:href="#Dégradé_sans_nom_125"/>
    <linearGradient id="Dégradé_sans_nom_125-7" data-name="Dégradé sans nom 125" x1="233.58" y1="89.71" x2="318.94" y2="89.71" xlink:href="#Dégradé_sans_nom_125"/>
    <linearGradient id="Dégradé_sans_nom_125-8" data-name="Dégradé sans nom 125" x1="334.24" y1="90.36" x2="420.19" y2="90.36" xlink:href="#Dégradé_sans_nom_125"/>
    <linearGradient id="Dégradé_sans_nom_125-9" data-name="Dégradé sans nom 125" x1="415.35" y1="125.23" x2="509.49" y2="125.23" xlink:href="#Dégradé_sans_nom_125"/>
    <linearGradient id="Dégradé_sans_nom_125-10" data-name="Dégradé sans nom 125" x1="482.65" y1="190.51" x2="570.76" y2="190.51" xlink:href="#Dégradé_sans_nom_125"/>
    <linearGradient id="Dégradé_sans_nom_125-11" data-name="Dégradé sans nom 125" x1="526.04" y1="276.26" x2="594.53" y2="276.26" xlink:href="#Dégradé_sans_nom_125"/>
    <linearGradient id="Dégradé_sans_nom_125-12" data-name="Dégradé sans nom 125" x1="524.92" y1="377.21" x2="594.37" y2="377.21" xlink:href="#Dégradé_sans_nom_125"/>
    <linearGradient id="Dégradé_sans_nom_125-13" data-name="Dégradé sans nom 125" x1="480.48" y1="462.42" x2="569.07" y2="462.42" xlink:href="#Dégradé_sans_nom_125"/>
    <linearGradient id="Dégradé_sans_nom_125-14" data-name="Dégradé sans nom 125" x1="412.44" y1="526.71" x2="506.54" y2="526.71" xlink:href="#Dégradé_sans_nom_125"/>
    <linearGradient id="Dégradé_sans_nom_125-15" data-name="Dégradé sans nom 125" x1="331.06" y1="560.29" x2="416.42" y2="560.29" xlink:href="#Dégradé_sans_nom_125"/>
    <linearGradient id="Dégradé_sans_nom_125-16" data-name="Dégradé sans nom 125" x1="229.81" y1="559.65" x2="315.76" y2="559.65" xlink:href="#Dégradé_sans_nom_125"/>
    <linearGradient id="Dégradé_sans_nom_125-17" data-name="Dégradé sans nom 125" x1="140.51" y1="524.78" x2="234.65" y2="524.78" xlink:href="#Dégradé_sans_nom_125"/>
    <linearGradient id="Dégradé_sans_nom_125-18" data-name="Dégradé sans nom 125" x1="79.25" y1="459.49" x2="167.35" y2="459.49" xlink:href="#Dégradé_sans_nom_125"/>
    <linearGradient id="Dégradé_sans_nom_125-19" data-name="Dégradé sans nom 125" x1="520.66" y1="79.34" x2="633.59" y2="79.34" xlink:href="#Dégradé_sans_nom_125"/>
    <linearGradient id="Dégradé_sans_nom_125-20" data-name="Dégradé sans nom 125" x1="172.41" y1="332" x2="477.59" y2="332" xlink:href="#Dégradé_sans_nom_125"/>
    <linearGradient id="Dégradé_sans_nom_125-21" data-name="Dégradé sans nom 125" x1="426.89" y1="332.73" x2="499.33" y2="332.73" xlink:href="#Dégradé_sans_nom_125"/>
    <linearGradient id="Dégradé_sans_nom_125-22" data-name="Dégradé sans nom 125" x1="300.11" y1="176.07" x2="349.89" y2="176.07" xlink:href="#Dégradé_sans_nom_125"/>
  </defs>
  <g id="Cercles">
    <g>
      <circle id="CERCLE_FOND" data-name="CERCLE FOND" class="cls-22" cx="325" cy="325" r="325"/>
      <path id="CONTOUR_EXT" data-name="CONTOUR EXT" class="cls-21" d="M567.47,127.86l-16,15.99c39.76,49.63,63.53,112.61,63.53,181.15,0,160.16-129.84,290-290,290S35,485.16,35,325,164.84,35,325,35c69.13,0,132.61,24.19,182.44,64.57,2.08,1.69,4.14,3.4,6.17,5.15l15.96-15.95c-1.55-1.35-3.11-2.68-4.68-3.99-54.18-45.13-123.86-72.28-199.89-72.28C152.41,12.5,12.5,152.41,12.5,325s139.91,312.5,312.5,312.5,312.5-139.91,312.5-312.5c0-74.74-26.24-143.36-70.03-197.14Z"/>
      <path id="CONTOUR_INT" data-name="CONTOUR INT" class="cls-11" d="M325,121.13c-112.6,0-203.87,91.28-203.87,203.87s91.28,203.87,203.87,203.87,203.87-91.28,203.87-203.87-91.28-203.87-203.87-203.87ZM325,514.19c-104.49,0-189.19-84.71-189.19-189.19s84.71-189.19,189.19-189.19,189.19,84.71,189.19,189.19-84.71,189.19-189.19,189.19Z"/>
      <g id="BARRES">
        <path class="cls-8" d="M123.96,398.26l-51.94,18.06c-.26.09-.54.12-.79.09-9.37-25.98-14.85-53.8-15.76-82.78.21-.12.45-.18.7-.19l55.01-2.38c.65,23.55,5.11,46.15,12.78,67.2Z"/>
        <path class="cls-3" d="M125.08,248.75c-8,20.95-12.79,43.49-13.79,67.01l-54.96-3.2c-.25-.02-.49-.09-.7-.2,1.33-28.94,7.22-56.68,16.98-82.54h.01c.25-.02.52,0,.79.1l51.67,18.83Z"/>
        <path class="cls-14" d="M169.52,178.08c-15.66,16.57-28.71,35.65-38.47,56.57l-49.51-23.96c-.25-.12-.46-.3-.61-.5,12.11-25.71,28.17-49.2,47.39-69.68.22.07.44.19.63.36l40.57,37.21Z"/>
        <path class="cls-4" d="M237.56,129.72c-21.08,9.45-40.35,22.21-57.14,37.63l-36.6-41.13c-.17-.18-.29-.4-.36-.62,20.75-18.91,44.47-34.62,70.38-46.35.2.15.37.36.49.61l23.23,49.86Z"/>
        <path class="cls-1" d="M318.94,111.18c-23.55.65-46.15,5.11-67.2,12.78l-18.06-51.94c-.09-.26-.12-.54-.09-.79,25.98-9.37,53.81-14.85,82.79-15.76.11.21.18.45.19.7l2.37,55.01Z"/>
        <path class="cls-7" d="M420.18,72.61h0c.02.26,0,.53-.1.8l-18.83,51.67c-20.95-8-43.49-12.79-67.01-13.79l3.2-54.96c.02-.25.09-.49.2-.7,28.94,1.33,56.68,7.22,82.54,16.98Z"/>
        <path class="cls-10" d="M509.49,128.32c-.07.22-.19.44-.36.63l-37.21,40.57c-16.57-15.66-35.65-28.71-56.57-38.47l23.96-49.51c.12-.25.3-.46.5-.61,25.71,12.11,49.2,28.17,69.68,47.39Z"/>
        <path class="cls-12" d="M570.76,213.84h0c-.16.21-.37.37-.62.49l-49.86,23.23c-9.45-21.08-22.21-40.35-37.63-57.14l41.13-36.6c.18-.17.4-.29.62-.36,18.91,20.75,34.63,44.47,46.36,70.38Z"/>
        <path class="cls-18" d="M594.53,316.38c-.21.11-.45.18-.7.19l-55.01,2.37c-.65-23.55-5.11-46.15-12.78-67.2l51.94-18.06c.26-.09.54-.12.79-.09,9.37,25.98,14.85,53.81,15.76,82.79Z"/>
        <path class="cls-6" d="M594.37,337.64c-1.33,28.94-7.22,56.68-16.98,82.54h-.01c-.25.02-.52,0-.79-.1l-51.67-18.83c8-20.95,12.79-43.49,13.79-67.01l54.96,3.2c.25.02.49.09.7.2Z"/>
        <path class="cls-5" d="M569.07,439.81c-12.11,25.71-28.17,49.2-47.39,69.68-.22-.07-.44-.19-.63-.36l-40.57-37.21c15.66-16.57,28.71-35.65,38.47-56.57l49.51,23.96c.25.12.46.3.61.5Z"/>
        <path class="cls-15" d="M506.54,524.4c-20.75,18.91-44.47,34.63-70.38,46.36h0c-.2-.16-.36-.37-.48-.62l-23.23-49.86c21.08-9.45,40.35-22.21,57.14-37.63l36.6,41.13c.17.18.29.4.36.62Z"/>
        <path class="cls-2" d="M416.41,578.77c-25.98,9.37-53.8,14.85-82.78,15.76-.12-.21-.18-.45-.19-.7l-2.38-55.01c23.55-.65,46.15-5.11,67.2-12.78l18.06,51.94c.09.26.12.54.09.79Z"/>
        <path class="cls-9" d="M315.76,538.71l-3.2,54.96c-.02.25-.09.49-.2.7-28.94-1.33-56.68-7.22-82.54-16.98h0c-.02-.26,0-.53.1-.8l18.83-51.67c20.95,8,43.49,12.79,67.01,13.79Z"/>
        <path class="cls-17" d="M234.65,518.95l-23.96,49.51c-.12.25-.3.46-.5.61-25.71-12.11-49.2-28.17-69.68-47.39.07-.22.19-.44.36-.63l37.21-40.57c16.57,15.66,35.65,28.71,56.57,38.47Z"/>
        <path class="cls-13" d="M167.35,469.58l-41.13,36.6c-.18.17-.4.29-.62.36-18.91-20.75-34.62-44.47-46.35-70.38.15-.2.36-.37.61-.49l49.86-23.23c9.45,21.08,22.21,40.35,37.63,57.14Z"/>
      </g>
      <path id="FLECHE" class="cls-16" d="M630.58,23.02c1.79-.65,3.53,1.09,2.88,2.88l-13.45,36.98c-3.48,9.57-6.12,19.42-7.89,29.44l-6.72,38.13c-.37,2.13-3.06,2.85-4.45,1.19l-21.53-25.66c-1.05-1.25-2.93-1.33-4.08-.18l-30.02,30.01-24.64-24.64,30.02-30.01c1.15-1.15,1.07-3.04-.18-4.09l-25.67-21.54c-1.65-1.39-.93-4.07,1.19-4.45l38.13-6.72c10.02-1.77,19.87-4.41,29.44-7.89l36.98-13.45Z"/>
      <g>
        <path class="cls-19" d="M456.44,285.11h21.15v-11.37c0-32.65-26.71-59.36-59.36-59.36h-186.46c-32.65,0-59.36,26.71-59.36,59.36v116.52c0,32.65,26.71,59.36,59.36,59.36h186.46c32.65,0,59.36-26.71,59.36-59.36v-11.37h-21.15c-12.94,0-24.66-5.25-33.15-13.73-8.48-8.49-13.73-20.21-13.73-33.16,0-25.9,20.99-46.89,46.88-46.89ZM358.62,432.17c-12.96,0-25.38-2.7-36.99-8.1-11.35-5.13-21.34-12.42-29.98-21.6-10.53-11.34-18.09-24.57-22.68-39.15h-19.98v-25.11h15.66c-.27-2.16-.27-4.05-.27-6.21s0-4.32.27-6.21h-15.66v-25.11h19.98c4.59-14.58,12.15-28.08,22.68-39.15,8.64-9.18,18.63-16.47,29.98-21.6,11.61-5.4,24.03-8.1,36.99-8.1,14.58,0,28.35,3.24,41.31,9.99l-14.31,27.81c-8.64-4.32-17.55-6.48-27-6.48-24.3,0-45.36,15.12-55.9,37.53h73.99v25.11h-80.74c0,1.89-.27,4.05-.27,6.21s.27,4.05.27,6.21h80.74v25.11h-73.99c10.54,22.14,31.6,37.53,55.9,37.53,9.72,0,18.9-2.43,27.54-7.02l14.85,27.81c-13.23,7.02-27.54,10.53-42.39,10.53Z"/>
        <path class="cls-23" d="M455.25,303.11c-15.66,0-28.36,12.7-28.36,28.36v2.53c0,15.66,12.7,28.36,28.36,28.36h44.08v-59.25h-44.08ZM454.67,340.07c-4.05,0-7.34-3.29-7.34-7.34s3.29-7.33,7.34-7.33,7.33,3.28,7.33,7.33-3.28,7.34-7.33,7.34Z"/>
        <circle class="cls-20" cx="325" cy="176.07" r="24.89"/>
      </g>
    </g>
  </g>
</svg>